# xmcd CD database file generated by OrangeCD 5.2
#
# Track frame offsets:
#	150
#	35636
#	68943
#	104789
#	124348
#	145599
#	154810
#	209256
#	215887
#	243938
#	288440
#
# Disc length: 4110 seconds
#
# Revision: 0
# Processed by: cddbd v1.5.2PL0 Copyright (c) Steve Scherf et al.
# Submitted via: OrangeCD 5.2
#
DISCID=b2100c0b
DTITLE=Kendrick Scott Oracle - The Source
DYEAR=1900
DGENRE=Jazz
TTITLE0=View From Above
TTITLE1=Mantra
TTITLE2=107 Steps
TTITLE3=Search For Noesis
TTITLE4=Journey
TTITLE5=Vcb
TTITLE6=Memories Waivering Echo
TTITLE7=View From Above (Reprise)
TTITLE8=The Source
TTITLE9=Psalm
TTITLE10=Retrospect
EXTD=
EXTT0=
EXTT1=
EXTT2=
EXTT3=
EXTT4=
EXTT5=
EXTT6=
EXTT7=
EXTT8=
EXTT9=
EXTT10=
PLAYORDER=
